<svg xmlns="http://www.w3.org/2000/svg" viewBox="0 0 280 400">
  <defs>
    <linearGradient id="paper2" x1="0%" y1="0%" x2="100%" y2="100%">
      <stop offset="0%" style="stop-color:#fefefe"/>
      <stop offset="100%" style="stop-color:#e2e8f0"/>
    </linearGradient>
  </defs>

  <!-- Shadow -->
  <rect x="8" y="8" width="280" height="400" rx="16" fill="#94a3b8" opacity="0.25"/>

  <!-- Paper background -->
  <rect x="0" y="0" width="280" height="400" rx="16" fill="url(#paper2)"/>

  <!-- Folded corner -->
  <path d="M280 0 L280 50 Q280 60 270 60 L220 60 L280 0" fill="#cbd5e1"/>

  <!-- Content lines -->
  <rect x="30" y="30" width="100" height="12" rx="6" fill="#3b82f6"/>
  <rect x="30" y="60" width="220" height="8" rx="4" fill="#94a3b8"/>
  <rect x="30" y="80" width="200" height="8" rx="4" fill="#94a3b8"/>
  <rect x="30" y="100" width="180" height="8" rx="4" fill="#94a3b8"/>

  <rect x="30" y="140" width="80" height="10" rx="5" fill="#3b82f6"/>
  <rect x="30" y="165" width="220" height="8" rx="4" fill="#94a3b8"/>
  <rect x="30" y="185" width="190" height="8" rx="4" fill="#94a3b8"/>
</svg>
